<svg xmlns="http://www.w3.org/2000/svg" width="128" height="192" viewBox="0 0 128 192"><rect width="100%" height="100%" fill="#DDDDDD"/><path fill="#999999" d="m26.287 93.09.13.65q.25-.25.53-.46.27-.21.58-.36t.66-.23q.35-.09.77-.09.67 0 1.19.23t.87.64.53.99q.18.57.18 1.26v5.22h-1.98v-5.22q0-.76-.34-1.17-.35-.41-1.05-.41-.51 0-.96.23t-.85.63v5.94h-1.97v-8.21h1.2q.39 0 .51.36m10.94-.49q.91 0 1.66.3t1.28.84.82 1.33q.29.78.29 1.75 0 .98-.29 1.76t-.82 1.34q-.53.55-1.28.84-.75.3-1.66.3-.92 0-1.67-.3-.75-.29-1.28-.84-.54-.56-.83-1.34t-.29-1.76q0-.97.29-1.75.29-.79.83-1.33.53-.54 1.28-.84t1.67-.3m0 6.94q1.03 0 1.52-.69t.49-2.01q0-1.33-.49-2.03-.49-.69-1.52-.69-1.04 0-1.54.7t-.5 2.02.5 2.01 1.54.69m11.43-4.41v3.68q.33.41.73.58.39.17.86.17.45 0 .81-.17t.61-.51q.25-.35.39-.87.13-.53.13-1.24 0-.72-.11-1.22-.12-.5-.34-.81-.21-.31-.52-.46-.31-.14-.7-.14-.62 0-1.05.26t-.81.73m-.27-2.04.16.76q.51-.57 1.15-.92t1.5-.35q.67 0 1.23.28.55.28.96.81.4.53.62 1.31t.22 1.79q0 .92-.25 1.71-.24.78-.7 1.36-.46.57-1.12.9-.65.32-1.46.32-.68 0-1.17-.21t-.87-.59v3.36h-1.98V92.73h1.21q.38 0 .5.36m11.01-.49q.91 0 1.66.3t1.28.84.82 1.33q.29.78.29 1.75 0 .98-.29 1.76t-.82 1.34q-.53.55-1.28.84-.75.3-1.66.3-.92 0-1.67-.3-.75-.29-1.29-.84-.53-.56-.82-1.34t-.29-1.76q0-.97.29-1.75.29-.79.82-1.33.54-.54 1.29-.84t1.67-.3m0 6.94q1.02 0 1.52-.69.49-.69.49-2.01 0-1.33-.49-2.03-.5-.69-1.52-.69-1.04 0-1.54.7t-.5 2.02.5 2.01 1.54.69m11.02-5.92-.45.71q-.08.13-.17.18t-.22.05q-.15 0-.31-.08l-.38-.18q-.22-.1-.49-.18-.28-.08-.66-.08-.58 0-.91.25t-.33.65q0 .26.17.44t.45.32q.29.14.65.24.36.11.73.24t.73.29q.36.17.65.42.28.25.45.6t.17.85q0 .59-.21 1.09t-.63.87q-.41.36-1.02.56-.62.21-1.42.21-.42 0-.82-.08-.41-.07-.78-.21t-.69-.32q-.31-.18-.55-.4l.45-.75q.09-.14.21-.21t.3-.07q.19 0 .35.1.17.11.38.23.22.12.51.22t.74.1q.35 0 .6-.08.26-.08.42-.22t.24-.32.08-.37q0-.29-.18-.47-.17-.18-.45-.32-.29-.14-.65-.24-.36-.11-.74-.24t-.75-.3q-.36-.17-.65-.44-.28-.26-.45-.64-.17-.39-.17-.93 0-.51.2-.96.2-.46.58-.8.39-.34.97-.54.58-.21 1.34-.21.85 0 1.55.28.69.28 1.16.74m4.31 7.45q-1.07 0-1.65-.61-.57-.6-.57-1.66v-4.59h-.84q-.16 0-.27-.1-.11-.11-.11-.31v-.79l1.32-.21.41-2.24q.04-.16.16-.25.11-.09.28-.09h1.03v2.58h2.19v1.41h-2.19v4.45q0 .38.19.6.18.22.51.22.19 0 .31-.05.12-.04.22-.09l.16-.09q.07-.05.14-.05.09 0 .15.05.05.04.12.13l.59.96q-.43.36-.99.54-.56.19-1.16.19m4.77-5.18h3.73q0-.38-.11-.72-.1-.34-.32-.6-.22-.25-.55-.4t-.77-.15q-.86 0-1.35.49t-.63 1.38m5.04 1.19h-5.08q.05.64.23 1.1.17.46.46.76t.69.44q.39.15.87.15t.83-.11.61-.25q.26-.13.45-.25.2-.11.38-.11.25 0 .37.19l.57.72q-.33.38-.74.64-.4.26-.85.42-.44.15-.9.22-.46.06-.89.06-.86 0-1.6-.28-.73-.29-1.28-.84-.54-.56-.85-1.38t-.31-1.9q0-.84.27-1.58t.78-1.29 1.24-.87 1.65-.32q.78 0 1.43.25.66.25 1.13.73.47.47.74 1.16.27.7.27 1.58 0 .45-.1.61-.09.15-.37.15m3.69-3.85.12.93q.39-.74.91-1.16.53-.42 1.25-.42.57 0 .91.25l-.12 1.48q-.04.14-.12.2t-.2.06-.36-.04-.46-.04q-.33 0-.58.1-.26.09-.46.27-.21.18-.36.44-.16.26-.3.58v5.06h-1.97v-8.21h1.16q.3 0 .42.11t.16.39m7.99 6.62q0-.25.09-.47t.25-.38.38-.26q.23-.1.48-.1.26 0 .48.1t.38.26q.17.16.26.38.1.22.1.47 0 .26-.1.48-.09.22-.26.38-.16.16-.38.25t-.48.09q-.25 0-.48-.09-.22-.09-.38-.25t-.25-.38-.09-.48m0-5.7q0-.25.09-.47.09-.23.25-.39t.38-.25q.23-.1.48-.1.26 0 .48.1.22.09.38.25.17.16.26.39.1.22.1.47t-.1.47q-.09.22-.26.38-.16.16-.38.26-.22.09-.48.09-.25 0-.48-.09-.22-.1-.38-.26t-.25-.38-.09-.47m5.56 1.77q0 1.65.4 3.24.4 1.6 1.15 3 .08.16.09.28t-.02.22q-.03.09-.1.16-.07.06-.15.11l-.88.54q-.59-.91-1.01-1.83-.41-.92-.68-1.86-.26-.94-.38-1.9-.13-.96-.13-1.96t.13-1.96q.12-.96.38-1.9.27-.94.68-1.85.42-.92 1.01-1.83l.88.53q.08.05.15.11.07.07.1.16.03.1.02.22t-.09.29q-.75 1.39-1.15 2.99t-.4 3.24"/></svg>